<mxfile host="app.diagrams.net" agent="Mozilla/5.0 (Windows NT 10.0; Win64; x64) AppleWebKit/537.36 (KHTML, like Gecko) Chrome/140.0.0.0 Safari/537.36" version="28.2.5">
  <diagram id="Il9Fi1deLX2TvpJTLiLy" name="Página-1">
    <mxGraphModel dx="2328" dy="556" grid="0" gridSize="10" guides="1" tooltips="1" connect="1" arrows="1" fold="1" page="0" pageScale="1" pageWidth="827" pageHeight="1169" math="0" shadow="0">
      <root>
        <mxCell id="0" />
        <mxCell id="1" parent="0" />
        <mxCell id="XDs6qOpa_2APzOStyn8Z-66" value="" style="group" parent="1" vertex="1" connectable="0">
          <mxGeometry x="-468" y="600" width="231" height="75.45999999999992" as="geometry" />
        </mxCell>
        <mxCell id="XDs6qOpa_2APzOStyn8Z-62" value="&lt;span style=&quot;font-size: 15px;&quot;&gt;Observar Timer&lt;/span&gt;" style="text;whiteSpace=wrap;html=1;labelBackgroundColor=none;align=center;" parent="XDs6qOpa_2APzOStyn8Z-66" vertex="1">
          <mxGeometry y="42" width="166" height="30.28" as="geometry" />
        </mxCell>
        <mxCell id="XDs6qOpa_2APzOStyn8Z-65" value="" style="group" parent="XDs6qOpa_2APzOStyn8Z-66" vertex="1" connectable="0">
          <mxGeometry x="178" y="1" width="166" height="75.45999999999992" as="geometry" />
        </mxCell>
        <mxCell id="XDs6qOpa_2APzOStyn8Z-64" value="&lt;span style=&quot;font-size: 15px;&quot;&gt;Ajustar Câmera e Postura&lt;/span&gt;" style="text;whiteSpace=wrap;html=1;labelBackgroundColor=none;align=center;" parent="XDs6qOpa_2APzOStyn8Z-65" vertex="1">
          <mxGeometry y="45.17999999999995" width="166" height="30.28" as="geometry" />
        </mxCell>
        <mxCell id="XDs6qOpa_2APzOStyn8Z-169" value="" style="shape=actor;whiteSpace=wrap;html=1;strokeWidth=2;" parent="XDs6qOpa_2APzOStyn8Z-65" vertex="1">
          <mxGeometry x="63.97" y="-6.730000000000018" width="38.07" height="51.91" as="geometry" />
        </mxCell>
        <mxCell id="XDs6qOpa_2APzOStyn8Z-104" style="edgeStyle=orthogonalEdgeStyle;rounded=0;orthogonalLoop=1;jettySize=auto;html=1;exitX=1;exitY=0.75;exitDx=0;exitDy=0;entryX=0;entryY=0.75;entryDx=0;entryDy=0;" parent="XDs6qOpa_2APzOStyn8Z-66" source="XDs6qOpa_2APzOStyn8Z-168" target="XDs6qOpa_2APzOStyn8Z-169" edge="1">
          <mxGeometry relative="1" as="geometry">
            <mxPoint x="116.12999999999988" y="22.589999999999918" as="sourcePoint" />
            <mxPoint x="224.5" y="22.589999999999918" as="targetPoint" />
          </mxGeometry>
        </mxCell>
        <mxCell id="XDs6qOpa_2APzOStyn8Z-116" value="&lt;span style=&quot;font-size: 15px;&quot;&gt;|||&lt;/span&gt;" style="edgeLabel;html=1;align=center;verticalAlign=middle;resizable=0;points=[];" parent="XDs6qOpa_2APzOStyn8Z-104" vertex="1" connectable="0">
          <mxGeometry x="-0.147" y="1" relative="1" as="geometry">
            <mxPoint as="offset" />
          </mxGeometry>
        </mxCell>
        <mxCell id="XDs6qOpa_2APzOStyn8Z-168" value="" style="shape=actor;whiteSpace=wrap;html=1;strokeWidth=2;" parent="XDs6qOpa_2APzOStyn8Z-66" vertex="1">
          <mxGeometry x="63.95999999999998" y="-5" width="38.07" height="51.91" as="geometry" />
        </mxCell>
        <mxCell id="XDs6qOpa_2APzOStyn8Z-67" value="" style="group" parent="1" vertex="1" connectable="0">
          <mxGeometry x="-378.25" y="448" width="166" height="97.72999999999996" as="geometry" />
        </mxCell>
        <mxCell id="XDs6qOpa_2APzOStyn8Z-58" value="" style="ellipse;shape=cloud;whiteSpace=wrap;html=1;strokeWidth=2;" parent="XDs6qOpa_2APzOStyn8Z-67" vertex="1">
          <mxGeometry x="28" width="103.5" height="69" as="geometry" />
        </mxCell>
        <mxCell id="XDs6qOpa_2APzOStyn8Z-59" value="&lt;span style=&quot;font-size: 15px;&quot;&gt;Preparação para gravação&lt;/span&gt;" style="text;whiteSpace=wrap;html=1;labelBackgroundColor=none;align=center;" parent="XDs6qOpa_2APzOStyn8Z-67" vertex="1">
          <mxGeometry y="67.44999999999999" width="166" height="30.28" as="geometry" />
        </mxCell>
        <mxCell id="XDs6qOpa_2APzOStyn8Z-68" value="" style="group" parent="1" vertex="1" connectable="0">
          <mxGeometry x="-556.53" y="460.09000000000003" width="166" height="82.18999999999994" as="geometry" />
        </mxCell>
        <mxCell id="XDs6qOpa_2APzOStyn8Z-55" value="" style="shape=actor;whiteSpace=wrap;html=1;strokeWidth=2;" parent="XDs6qOpa_2APzOStyn8Z-68" vertex="1">
          <mxGeometry x="63.95999999999998" width="38.07" height="51.91" as="geometry" />
        </mxCell>
        <mxCell id="XDs6qOpa_2APzOStyn8Z-56" value="&lt;span style=&quot;color: rgb(0, 0, 0); font-family: Helvetica; font-style: normal; font-variant-ligatures: normal; font-variant-caps: normal; font-weight: 400; letter-spacing: normal; orphans: 2; text-indent: 0px; text-transform: none; widows: 2; word-spacing: 0px; -webkit-text-stroke-width: 0px; white-space: normal; text-decoration-thickness: initial; text-decoration-style: initial; text-decoration-color: initial; float: none; display: inline !important;&quot;&gt;&lt;font style=&quot;font-size: 15px;&quot;&gt;Analisar se já enviou vídeo base&lt;/font&gt;&lt;/span&gt;" style="text;whiteSpace=wrap;html=1;labelBackgroundColor=none;align=center;" parent="XDs6qOpa_2APzOStyn8Z-68" vertex="1">
          <mxGeometry y="51.90999999999997" width="166" height="30.28" as="geometry" />
        </mxCell>
        <mxCell id="XDs6qOpa_2APzOStyn8Z-69" value="" style="group" parent="1" vertex="1" connectable="0">
          <mxGeometry x="-305" y="316" width="245" height="92.28" as="geometry" />
        </mxCell>
        <mxCell id="XDs6qOpa_2APzOStyn8Z-49" value="&lt;span style=&quot;color: rgb(0, 0, 0); font-family: Helvetica; font-style: normal; font-variant-ligatures: normal; font-variant-caps: normal; letter-spacing: normal; orphans: 2; text-align: center; text-indent: 0px; text-transform: none; widows: 2; word-spacing: 0px; -webkit-text-stroke-width: 0px; white-space: normal; text-decoration-thickness: initial; text-decoration-style: initial; text-decoration-color: initial; float: none; display: inline !important;&quot;&gt;&lt;font style=&quot;font-size: 13px;&quot;&gt;&lt;b style=&quot;&quot;&gt;Comparar Pose Com Captura ao Vivo&lt;/b&gt;&lt;/font&gt;&lt;/span&gt;" style="text;whiteSpace=wrap;html=1;labelBackgroundColor=none;" parent="XDs6qOpa_2APzOStyn8Z-69" vertex="1">
          <mxGeometry x="6" y="62" width="245" height="30.28" as="geometry" />
        </mxCell>
        <mxCell id="XDs6qOpa_2APzOStyn8Z-57" value="" style="ellipse;shape=cloud;whiteSpace=wrap;html=1;strokeWidth=2;" parent="XDs6qOpa_2APzOStyn8Z-69" vertex="1">
          <mxGeometry x="67.75" width="103.5" height="69" as="geometry" />
        </mxCell>
        <mxCell id="XDs6qOpa_2APzOStyn8Z-75" value="" style="group" parent="1" vertex="1" connectable="0">
          <mxGeometry x="-82" y="450.09" width="166" height="93.28000000000003" as="geometry" />
        </mxCell>
        <mxCell id="XDs6qOpa_2APzOStyn8Z-157" value="" style="ellipse;shape=cloud;whiteSpace=wrap;html=1;strokeWidth=2;" parent="XDs6qOpa_2APzOStyn8Z-75" vertex="1">
          <mxGeometry x="29" y="-12.089999999999975" width="103.5" height="69" as="geometry" />
        </mxCell>
        <mxCell id="XDs6qOpa_2APzOStyn8Z-72" value="&lt;span style=&quot;font-size: 15px;&quot;&gt;Reproduzir Movimentos&lt;/span&gt;" style="text;whiteSpace=wrap;html=1;labelBackgroundColor=none;align=center;" parent="XDs6qOpa_2APzOStyn8Z-75" vertex="1">
          <mxGeometry y="63.00000000000006" width="166" height="30.28" as="geometry" />
        </mxCell>
        <mxCell id="XDs6qOpa_2APzOStyn8Z-81" style="edgeStyle=orthogonalEdgeStyle;rounded=0;orthogonalLoop=1;jettySize=auto;html=1;exitX=0.875;exitY=0.5;exitDx=0;exitDy=0;exitPerimeter=0;entryX=0.118;entryY=0.631;entryDx=0;entryDy=0;entryPerimeter=0;" parent="1" source="XDs6qOpa_2APzOStyn8Z-58" target="XDs6qOpa_2APzOStyn8Z-157" edge="1">
          <mxGeometry relative="1" as="geometry">
            <mxPoint x="-62.5" y="481.5899999999999" as="targetPoint" />
          </mxGeometry>
        </mxCell>
        <mxCell id="XDs6qOpa_2APzOStyn8Z-117" value="&lt;font style=&quot;font-size: 15px;&quot;&gt;&amp;gt;&amp;gt;&lt;/font&gt;" style="edgeLabel;html=1;align=center;verticalAlign=middle;resizable=0;points=[];" parent="XDs6qOpa_2APzOStyn8Z-81" vertex="1" connectable="0">
          <mxGeometry x="-0.0514" y="2" relative="1" as="geometry">
            <mxPoint as="offset" />
          </mxGeometry>
        </mxCell>
        <mxCell id="XDs6qOpa_2APzOStyn8Z-84" style="edgeStyle=orthogonalEdgeStyle;rounded=0;orthogonalLoop=1;jettySize=auto;html=1;exitX=0.9;exitY=0.5;exitDx=0;exitDy=0;exitPerimeter=0;entryX=0.16;entryY=0.55;entryDx=0;entryDy=0;entryPerimeter=0;" parent="1" source="XDs6qOpa_2APzOStyn8Z-55" target="XDs6qOpa_2APzOStyn8Z-58" edge="1">
          <mxGeometry relative="1" as="geometry" />
        </mxCell>
        <mxCell id="XDs6qOpa_2APzOStyn8Z-115" value="&amp;gt;&amp;gt;" style="edgeLabel;html=1;align=center;verticalAlign=middle;resizable=0;points=[];fontSize=15;" parent="XDs6qOpa_2APzOStyn8Z-84" vertex="1" connectable="0">
          <mxGeometry x="-0.0748" y="2" relative="1" as="geometry">
            <mxPoint as="offset" />
          </mxGeometry>
        </mxCell>
        <mxCell id="XDs6qOpa_2APzOStyn8Z-87" style="edgeStyle=orthogonalEdgeStyle;rounded=0;orthogonalLoop=1;jettySize=auto;html=1;exitX=0.75;exitY=1;exitDx=0;exitDy=0;entryX=0.5;entryY=0;entryDx=0;entryDy=0;" parent="1" source="XDs6qOpa_2APzOStyn8Z-59" target="XDs6qOpa_2APzOStyn8Z-169" edge="1">
          <mxGeometry relative="1" as="geometry">
            <mxPoint x="-210.36499999999978" y="600" as="targetPoint" />
          </mxGeometry>
        </mxCell>
        <mxCell id="XDs6qOpa_2APzOStyn8Z-88" style="edgeStyle=orthogonalEdgeStyle;rounded=0;orthogonalLoop=1;jettySize=auto;html=1;exitX=0.25;exitY=1;exitDx=0;exitDy=0;entryX=0.5;entryY=0;entryDx=0;entryDy=0;" parent="1" source="XDs6qOpa_2APzOStyn8Z-59" target="XDs6qOpa_2APzOStyn8Z-168" edge="1">
          <mxGeometry relative="1" as="geometry">
            <mxPoint x="-385.0049999999999" y="600" as="targetPoint" />
          </mxGeometry>
        </mxCell>
        <mxCell id="XDs6qOpa_2APzOStyn8Z-89" value="" style="group" parent="1" vertex="1" connectable="0">
          <mxGeometry x="480.5" y="595.82" width="166" height="75.45999999999992" as="geometry" />
        </mxCell>
        <mxCell id="XDs6qOpa_2APzOStyn8Z-90" value="" style="strokeWidth=2;html=1;shape=mxgraph.flowchart.multi-document;whiteSpace=wrap;" parent="XDs6qOpa_2APzOStyn8Z-89" vertex="1">
          <mxGeometry x="46.5" width="66.27" height="45.18" as="geometry" />
        </mxCell>
        <mxCell id="XDs6qOpa_2APzOStyn8Z-91" value="&lt;span style=&quot;font-size: 15px;&quot;&gt;Mostrar Resultados Avançados&lt;/span&gt;" style="text;whiteSpace=wrap;html=1;labelBackgroundColor=none;align=center;" parent="XDs6qOpa_2APzOStyn8Z-89" vertex="1">
          <mxGeometry y="45.17999999999995" width="166" height="30.28" as="geometry" />
        </mxCell>
        <mxCell id="XDs6qOpa_2APzOStyn8Z-92" value="" style="group" parent="1" vertex="1" connectable="0">
          <mxGeometry x="294" y="597" width="166" height="72.27999999999997" as="geometry" />
        </mxCell>
        <mxCell id="XDs6qOpa_2APzOStyn8Z-93" value="" style="strokeWidth=2;html=1;shape=mxgraph.flowchart.multi-document;whiteSpace=wrap;" parent="XDs6qOpa_2APzOStyn8Z-92" vertex="1">
          <mxGeometry x="49.860000000000014" width="66.27" height="45.18" as="geometry" />
        </mxCell>
        <mxCell id="XDs6qOpa_2APzOStyn8Z-94" value="&lt;span style=&quot;font-size: 15px;&quot;&gt;Mostrar Resultados Simples&lt;/span&gt;" style="text;whiteSpace=wrap;html=1;labelBackgroundColor=none;align=center;" parent="XDs6qOpa_2APzOStyn8Z-92" vertex="1">
          <mxGeometry y="42" width="166" height="30.28" as="geometry" />
        </mxCell>
        <mxCell id="XDs6qOpa_2APzOStyn8Z-105" style="edgeStyle=orthogonalEdgeStyle;rounded=0;orthogonalLoop=1;jettySize=auto;html=1;entryX=-0.008;entryY=0.586;entryDx=0;entryDy=0;entryPerimeter=0;exitX=1;exitY=0.5;exitDx=0;exitDy=0;exitPerimeter=0;" parent="XDs6qOpa_2APzOStyn8Z-92" source="XDs6qOpa_2APzOStyn8Z-93" edge="1">
          <mxGeometry relative="1" as="geometry">
            <mxPoint x="141" y="22" as="sourcePoint" />
            <mxPoint x="232.13" y="22.450000000000045" as="targetPoint" />
          </mxGeometry>
        </mxCell>
        <mxCell id="XDs6qOpa_2APzOStyn8Z-120" value="&lt;font style=&quot;font-size: 15px;&quot;&gt;|||&lt;/font&gt;" style="edgeLabel;html=1;align=center;verticalAlign=middle;resizable=0;points=[];" parent="XDs6qOpa_2APzOStyn8Z-105" vertex="1" connectable="0">
          <mxGeometry x="-0.1633" y="2" relative="1" as="geometry">
            <mxPoint as="offset" />
          </mxGeometry>
        </mxCell>
        <mxCell id="XDs6qOpa_2APzOStyn8Z-95" value="" style="group" parent="1" vertex="1" connectable="0">
          <mxGeometry x="383.75" y="444" width="166" height="97.72999999999996" as="geometry" />
        </mxCell>
        <mxCell id="XDs6qOpa_2APzOStyn8Z-96" value="" style="ellipse;shape=cloud;whiteSpace=wrap;html=1;strokeWidth=2;" parent="XDs6qOpa_2APzOStyn8Z-95" vertex="1">
          <mxGeometry x="28" width="103.5" height="69" as="geometry" />
        </mxCell>
        <mxCell id="XDs6qOpa_2APzOStyn8Z-97" value="&lt;span style=&quot;font-size: 15px;&quot;&gt;Selecionar Resultados&lt;/span&gt;" style="text;whiteSpace=wrap;html=1;labelBackgroundColor=none;align=center;" parent="XDs6qOpa_2APzOStyn8Z-95" vertex="1">
          <mxGeometry y="67.44999999999999" width="166" height="30.28" as="geometry" />
        </mxCell>
        <mxCell id="XDs6qOpa_2APzOStyn8Z-98" style="edgeStyle=orthogonalEdgeStyle;rounded=0;orthogonalLoop=1;jettySize=auto;html=1;exitX=0.75;exitY=1;exitDx=0;exitDy=0;entryX=0.5;entryY=0;entryDx=0;entryDy=0;entryPerimeter=0;" parent="1" source="XDs6qOpa_2APzOStyn8Z-97" target="XDs6qOpa_2APzOStyn8Z-90" edge="1">
          <mxGeometry relative="1" as="geometry" />
        </mxCell>
        <mxCell id="XDs6qOpa_2APzOStyn8Z-99" style="edgeStyle=orthogonalEdgeStyle;rounded=0;orthogonalLoop=1;jettySize=auto;html=1;exitX=0.25;exitY=1;exitDx=0;exitDy=0;entryX=0.5;entryY=0;entryDx=0;entryDy=0;entryPerimeter=0;" parent="1" source="XDs6qOpa_2APzOStyn8Z-97" target="XDs6qOpa_2APzOStyn8Z-93" edge="1">
          <mxGeometry relative="1" as="geometry" />
        </mxCell>
        <mxCell id="XDs6qOpa_2APzOStyn8Z-100" style="edgeStyle=orthogonalEdgeStyle;rounded=0;orthogonalLoop=1;jettySize=auto;html=1;exitX=0.95;exitY=0.638;exitDx=0;exitDy=0;exitPerimeter=0;entryX=0;entryY=0.5;entryDx=0;entryDy=0;" parent="1" source="XDs6qOpa_2APzOStyn8Z-157" target="XDs6qOpa_2APzOStyn8Z-170" edge="1">
          <mxGeometry relative="1" as="geometry">
            <mxPoint x="0.5" y="481.5899999999999" as="sourcePoint" />
            <mxPoint x="201" y="482" as="targetPoint" />
          </mxGeometry>
        </mxCell>
        <mxCell id="XDs6qOpa_2APzOStyn8Z-118" value="&lt;span style=&quot;font-size: 15px;&quot;&gt;|[]|&lt;/span&gt;" style="edgeLabel;html=1;align=center;verticalAlign=middle;resizable=0;points=[];" parent="XDs6qOpa_2APzOStyn8Z-100" vertex="1" connectable="0">
          <mxGeometry x="-0.1455" y="1" relative="1" as="geometry">
            <mxPoint as="offset" />
          </mxGeometry>
        </mxCell>
        <mxCell id="XDs6qOpa_2APzOStyn8Z-106" style="edgeStyle=orthogonalEdgeStyle;rounded=0;orthogonalLoop=1;jettySize=auto;html=1;exitX=0.31;exitY=0.8;exitDx=0;exitDy=0;exitPerimeter=0;entryX=0.4;entryY=0.1;entryDx=0;entryDy=0;entryPerimeter=0;" parent="1" source="XDs6qOpa_2APzOStyn8Z-57" target="XDs6qOpa_2APzOStyn8Z-58" edge="1">
          <mxGeometry relative="1" as="geometry" />
        </mxCell>
        <mxCell id="XDs6qOpa_2APzOStyn8Z-110" style="edgeStyle=orthogonalEdgeStyle;rounded=0;orthogonalLoop=1;jettySize=auto;html=1;exitX=0.16;exitY=0.55;exitDx=0;exitDy=0;exitPerimeter=0;entryX=0.5;entryY=0;entryDx=0;entryDy=0;" parent="1" source="XDs6qOpa_2APzOStyn8Z-57" target="XDs6qOpa_2APzOStyn8Z-55" edge="1">
          <mxGeometry relative="1" as="geometry" />
        </mxCell>
        <mxCell id="XDs6qOpa_2APzOStyn8Z-111" style="edgeStyle=orthogonalEdgeStyle;rounded=0;orthogonalLoop=1;jettySize=auto;html=1;exitX=0.875;exitY=0.5;exitDx=0;exitDy=0;exitPerimeter=0;entryX=0.625;entryY=0.2;entryDx=0;entryDy=0;entryPerimeter=0;" parent="1" source="XDs6qOpa_2APzOStyn8Z-57" target="XDs6qOpa_2APzOStyn8Z-96" edge="1">
          <mxGeometry relative="1" as="geometry" />
        </mxCell>
        <mxCell id="XDs6qOpa_2APzOStyn8Z-156" style="edgeStyle=orthogonalEdgeStyle;rounded=0;orthogonalLoop=1;jettySize=auto;html=1;exitX=0.8;exitY=0.8;exitDx=0;exitDy=0;exitPerimeter=0;entryX=0.4;entryY=0.1;entryDx=0;entryDy=0;entryPerimeter=0;" parent="1" source="XDs6qOpa_2APzOStyn8Z-57" target="XDs6qOpa_2APzOStyn8Z-157" edge="1">
          <mxGeometry relative="1" as="geometry">
            <mxPoint x="-31" y="450.0899999999999" as="targetPoint" />
          </mxGeometry>
        </mxCell>
        <mxCell id="XDs6qOpa_2APzOStyn8Z-159" value="" style="group" parent="1" vertex="1" connectable="0">
          <mxGeometry x="7.999999999999986" y="600" width="166" height="75.45999999999992" as="geometry" />
        </mxCell>
        <mxCell id="XDs6qOpa_2APzOStyn8Z-160" value="" style="strokeWidth=2;html=1;shape=mxgraph.flowchart.multi-document;whiteSpace=wrap;" parent="XDs6qOpa_2APzOStyn8Z-159" vertex="1">
          <mxGeometry x="46.5" width="66.27" height="45.18" as="geometry" />
        </mxCell>
        <mxCell id="XDs6qOpa_2APzOStyn8Z-161" value="&lt;span style=&quot;font-size: 15px;&quot;&gt;Imitar Movimentos&lt;/span&gt;" style="text;whiteSpace=wrap;html=1;labelBackgroundColor=none;align=center;" parent="XDs6qOpa_2APzOStyn8Z-159" vertex="1">
          <mxGeometry y="48.99999999999995" width="166" height="30.28" as="geometry" />
        </mxCell>
        <mxCell id="XDs6qOpa_2APzOStyn8Z-162" style="edgeStyle=orthogonalEdgeStyle;rounded=0;orthogonalLoop=1;jettySize=auto;html=1;exitX=1;exitY=0.5;exitDx=0;exitDy=0;exitPerimeter=0;entryX=0;entryY=0.5;entryDx=0;entryDy=0;entryPerimeter=0;" parent="1" source="XDs6qOpa_2APzOStyn8Z-158" target="XDs6qOpa_2APzOStyn8Z-160" edge="1">
          <mxGeometry relative="1" as="geometry">
            <mxPoint x="44.139999999999986" y="616" as="targetPoint" />
          </mxGeometry>
        </mxCell>
        <mxCell id="XDs6qOpa_2APzOStyn8Z-163" value="&lt;span style=&quot;font-size: 15px;&quot;&gt;|||&lt;/span&gt;" style="edgeLabel;html=1;align=center;verticalAlign=middle;resizable=0;points=[];" parent="XDs6qOpa_2APzOStyn8Z-162" vertex="1" connectable="0">
          <mxGeometry x="-0.147" y="1" relative="1" as="geometry">
            <mxPoint as="offset" />
          </mxGeometry>
        </mxCell>
        <mxCell id="XDs6qOpa_2APzOStyn8Z-164" style="edgeStyle=orthogonalEdgeStyle;rounded=0;orthogonalLoop=1;jettySize=auto;html=1;exitX=0.75;exitY=1;exitDx=0;exitDy=0;entryX=0.5;entryY=0;entryDx=0;entryDy=0;entryPerimeter=0;" parent="1" source="XDs6qOpa_2APzOStyn8Z-72" target="XDs6qOpa_2APzOStyn8Z-160" edge="1">
          <mxGeometry relative="1" as="geometry" />
        </mxCell>
        <mxCell id="XDs6qOpa_2APzOStyn8Z-165" style="edgeStyle=orthogonalEdgeStyle;rounded=0;orthogonalLoop=1;jettySize=auto;html=1;exitX=0.25;exitY=1;exitDx=0;exitDy=0;entryX=0.5;entryY=0;entryDx=0;entryDy=0;entryPerimeter=0;" parent="1" source="XDs6qOpa_2APzOStyn8Z-72" target="XDs6qOpa_2APzOStyn8Z-158" edge="1">
          <mxGeometry relative="1" as="geometry" />
        </mxCell>
        <mxCell id="XDs6qOpa_2APzOStyn8Z-167" value="" style="group" parent="1" vertex="1" connectable="0">
          <mxGeometry x="-150" y="600" width="166" height="78.27999999999997" as="geometry" />
        </mxCell>
        <mxCell id="XDs6qOpa_2APzOStyn8Z-158" value="" style="strokeWidth=2;html=1;shape=mxgraph.flowchart.multi-document;whiteSpace=wrap;" parent="XDs6qOpa_2APzOStyn8Z-167" vertex="1">
          <mxGeometry x="47" width="66.27" height="45.18" as="geometry" />
        </mxCell>
        <mxCell id="XDs6qOpa_2APzOStyn8Z-166" value="&lt;span style=&quot;font-size: 15px;&quot;&gt;Assistir Vídeo Base&lt;/span&gt;" style="text;whiteSpace=wrap;html=1;labelBackgroundColor=none;align=center;" parent="XDs6qOpa_2APzOStyn8Z-167" vertex="1">
          <mxGeometry y="48" width="166" height="30.28" as="geometry" />
        </mxCell>
        <mxCell id="XDs6qOpa_2APzOStyn8Z-170" value="" style="rhombus;whiteSpace=wrap;html=1;strokeWidth=2;" parent="1" vertex="1">
          <mxGeometry x="227" y="455" width="55" height="55" as="geometry" />
        </mxCell>
        <mxCell id="XDs6qOpa_2APzOStyn8Z-172" style="edgeStyle=orthogonalEdgeStyle;rounded=0;orthogonalLoop=1;jettySize=auto;html=1;exitX=1;exitY=0.5;exitDx=0;exitDy=0;entryX=0.16;entryY=0.55;entryDx=0;entryDy=0;entryPerimeter=0;" parent="1" source="XDs6qOpa_2APzOStyn8Z-170" target="XDs6qOpa_2APzOStyn8Z-96" edge="1">
          <mxGeometry relative="1" as="geometry" />
        </mxCell>
        <mxCell id="XDs6qOpa_2APzOStyn8Z-173" value="&lt;font style=&quot;font-size: 15px;&quot;&gt;[]&amp;gt;&amp;gt;&lt;/font&gt;" style="edgeLabel;html=1;align=center;verticalAlign=middle;resizable=0;points=[];" parent="XDs6qOpa_2APzOStyn8Z-172" vertex="1" connectable="0">
          <mxGeometry x="-0.1171" y="-1" relative="1" as="geometry">
            <mxPoint x="-1" y="1" as="offset" />
          </mxGeometry>
        </mxCell>
        <mxCell id="XDs6qOpa_2APzOStyn8Z-174" value="&lt;span style=&quot;font-size: 15px;&quot;&gt;Processar Vídeos&lt;/span&gt;" style="text;whiteSpace=wrap;html=1;labelBackgroundColor=none;align=center;" parent="1" vertex="1">
          <mxGeometry x="171.5" y="513.09" width="166" height="30.28" as="geometry" />
        </mxCell>
        <mxCell id="xZScNQonnyhjNA4LRe3j-1" style="edgeStyle=orthogonalEdgeStyle;rounded=0;orthogonalLoop=1;jettySize=auto;html=1;exitX=0.96;exitY=0.7;exitDx=0;exitDy=0;exitPerimeter=0;entryX=0.5;entryY=0;entryDx=0;entryDy=0;" parent="1" source="XDs6qOpa_2APzOStyn8Z-57" target="XDs6qOpa_2APzOStyn8Z-170" edge="1">
          <mxGeometry relative="1" as="geometry" />
        </mxCell>
      </root>
    </mxGraphModel>
  </diagram>
</mxfile>
